<svg fill="none" height="33" viewBox="0 0 129 33" width="129" xmlns="http://www.w3.org/2000/svg"><g fill="#fff"><path d="m7.858 31.2539c-4.47273.0889-5.3113-2.4064-.34435-2.9802s43.80425-8.5841 62.44925-12.7514c18.6449-4.1674 52.2861-13.59056 54.7121-14.37418 2.426-.783619 2.273 2.25395.344 2.98018s-26.964 8.6736-51.6743 14.5265c-24.7103 5.853-61.014 12.5101-65.4867 12.5991z"/><path d="m112.564 9.59385 7.278-2.35085c1.745 4.3866 3.242 6.5255 6.669 9.7994l-.482.1812c-2.078.7822-4.418.3528-6.083-1.1163z"/><path d="m120.449 31.3556c4.473.089 5.312-2.4063.345-2.9801-4.967-.5739-43.8047-8.5841-62.4496-12.7515s-52.28567-13.5905-54.7118-14.37412c-2.42614-.783618-2.27367 2.25395-.34431 2.98018 1.92937.72623 26.96391 8.67354 51.67421 14.52654s61.0145 12.51 65.4865 12.599z"/><path d="m15.7434 9.69561-7.27832-2.35085c-1.74461 4.38654-3.2418 6.52544-6.66872 9.79944l.48147.1812c2.0781.7822 4.41829.3528 6.08329-1.1163z"/></g></svg>